<?xml version="1.0"?>
<!--Icons from directory ""-->
<svg xmlns="http://www.w3.org/2000/svg" width="300" height="900" viewBox="0 0 300 900"><svg viewBox="0 0 496 496" width="300" height="300" id="individual" y="0"><path d="M496 248C496 111.256 384.744 0 248 0c-42.872 0-84.64 11.104-121.672 32H96V0H48v101.496C16.64 144.216 0 194.776 0 248c0 136.752 111.256 248 248 248 30.472 0 60.216-5.48 88.416-16.248C352.512 489.984 371.552 496 392 496c24.944 0 49.072-8.968 67.936-25.248L449.48 458.64A87.978 87.978 0 0 1 392 480c-48.52 0-88-39.48-88-88s39.48-88 88-88 88 39.48 88 88c0 20.28-6.704 39.344-19.4 55.128l12.472 10.032C487.856 438.768 496 415.632 496 392c0-20.464-6.024-39.504-16.264-55.608C490.496 308.184 496 278.472 496 248zM128 80h16v112h-16V80zM96 48h16v144H96V48zM64 16h16v176H64V16zm176 463.8C118.432 475.648 20.352 377.568 16.2 256H240v223.8zm0-239.8H16.32c1.304-38.944 12.12-76.16 31.68-109.336V208h176v-80h-32V96h-32V64h-32V49.536c33.848-20.512 72.312-31.896 112-33.256V240zm-80-48v-80h16v80h-16zm32 0v-48h16v48h-16zm287.8 48h-68.488l58.832-58.832c5.648 18.728 8.96 38.448 9.656 58.832zm-40.312-122.8l-89.352 89.352 11.312 11.312 86.8-86.8a231.703 231.703 0 0 1 16.088 33.288L388.688 240h-49.376l10.344-10.344-11.312-11.312L316.688 240h-49.376L417.496 89.816c7.984 8.56 15.352 17.696 21.992 27.384zM256 16.2c20.384.696 40.104 4.008 58.832 9.656L256 84.688V16.2zm0 163.112l97.224-97.224-11.312-11.312L256 156.688v-49.376l75.648-75.648a230.026 230.026 0 0 1 33.288 16.088L352.048 60.64l11.312 11.312 15.44-15.44c9.688 6.64 18.824 14 27.384 21.992L256 228.688v-49.376zM392 288c-57.344 0-104 46.656-104 104 0 30.088 12.92 57.144 33.408 76.152-21.08 7.032-43.008 10.912-65.408 11.664V256h223.816c-.752 22.392-4.664 44.304-11.688 65.384C449.12 300.904 422.072 288 392 288z" fill="#f3a530"/><path fill="#f3a530" d="M98.378 386.342l96-96 11.314 11.313-96 96zM184 352c-13.232 0-24 10.768-24 24s10.768 24 24 24 24-10.768 24-24-10.768-24-24-24zm0 32c-4.408 0-8-3.584-8-8s3.592-8 8-8 8 3.584 8 8-3.592 8-8 8zM120 288c-13.232 0-24 10.768-24 24s10.768 24 24 24 24-10.768 24-24-10.768-24-24-24zm0 32c-4.408 0-8-3.584-8-8s3.592-8 8-8 8 3.584 8 8-3.592 8-8 8zM392 384c-8.824 0-16-7.176-16-16s7.176-16 16-16 16 7.176 16 16h16c0-14.872-10.24-27.288-24-30.864V320h-16v17.136c-13.76 3.576-24 15.992-24 30.864 0 17.648 14.352 32 32 32 8.824 0 16 7.176 16 16s-7.176 16-16 16-16-7.176-16-16h-16c0 14.872 10.24 27.288 24 30.864V464h16v-17.136c13.76-3.576 24-15.992 24-30.864 0-17.648-14.352-32-32-32zM448 384h16v16h-16zM320 384h16v16h-16z"/></svg><svg viewBox="0 0 511 511" width="300" height="300" id="php-code" y="300"><g fill="#f3a530"><path d="M39.5 103c1.97 0 3.91-.8 5.3-2.2 1.4-1.39 2.2-3.33 2.2-5.3s-.8-3.91-2.2-5.3a7.528 7.528 0 0 0-5.3-2.2 7.51 7.51 0 0 0-7.5 7.5c0 1.97.8 3.91 2.2 5.3 1.39 1.4 3.33 2.2 5.3 2.2zM63.5 103a7.51 7.51 0 0 0 7.5-7.5 7.51 7.51 0 0 0-7.5-7.5c-1.97 0-3.91.8-5.3 2.2-1.4 1.39-2.2 3.33-2.2 5.3s.8 3.91 2.2 5.3c1.39 1.4 3.33 2.2 5.3 2.2zM87.5 103c1.97 0 3.91-.8 5.3-2.2 1.4-1.39 2.2-3.33 2.2-5.3s-.8-3.91-2.2-5.3a7.528 7.528 0 0 0-5.3-2.2c-1.97 0-3.91.8-5.3 2.2-1.4 1.39-2.2 3.33-2.2 5.3s.8 3.91 2.2 5.3c1.39 1.4 3.33 2.2 5.3 2.2zM220.803 210.197a7.5 7.5 0 0 0-10.606 0l-72 72a7.5 7.5 0 0 0 0 10.606l72 72c1.464 1.464 3.384 2.197 5.303 2.197s3.839-.732 5.303-2.197a7.5 7.5 0 0 0 0-10.606L154.106 287.5l66.697-66.697a7.5 7.5 0 0 0 0-10.606zM295.5 352c-1.97 0-3.91.8-5.3 2.2-1.4 1.39-2.2 3.33-2.2 5.3s.8 3.91 2.2 5.3c1.39 1.4 3.33 2.2 5.3 2.2 1.97 0 3.91-.8 5.3-2.2 1.4-1.39 2.2-3.33 2.2-5.3s-.8-3.91-2.2-5.3a7.528 7.528 0 0 0-5.3-2.2zM295.5 208c-30.603 0-55.5 24.897-55.5 55.5a7.5 7.5 0 0 0 15 0c0-22.332 18.168-40.5 40.5-40.5s40.5 18.168 40.5 40.5-18.168 40.5-40.5 40.5a7.5 7.5 0 0 0-7.5 7.5v16a7.5 7.5 0 0 0 15 0v-9.005c27.07-3.671 48-26.935 48-54.995 0-30.603-24.897-55.5-55.5-55.5zM119.5 103h304a7.5 7.5 0 0 0 0-15h-304a7.5 7.5 0 0 0 0 15zM455.5 103h16a7.5 7.5 0 0 0 0-15h-16a7.5 7.5 0 0 0 0 15z"/><path d="M471.5 56h-432C17.72 56 0 73.72 0 95.5v320C0 437.28 17.72 455 39.5 455h432c21.78 0 39.5-17.72 39.5-39.5v-320c0-21.78-17.72-39.5-39.5-39.5zm-432 15h432c13.509 0 24.5 10.991 24.5 24.5V120H15V95.5C15 81.991 25.991 71 39.5 71zm432 369h-432C25.991 440 15 429.009 15 415.5V135h481v280.5c0 13.509-10.991 24.5-24.5 24.5z"/></g></svg><svg width="300" height="300" viewBox="0 0 47.168 47.168" id="website" y="600"><path d="M47.168 36.918V6.699H0v30.219h19.252v1.945H9.188v1.605h28.179v-1.605h-9.846v-1.945h19.647zM3.45 32.469v-22.32h40.267v22.317H3.45v.003z" data-original="#000000" class="active-path" data-old_color="#F3BA00" fill="#F3A530"/><path d="M10.965 19.217h25.166v-6.166H10.965v6.166zm.5-5.666h24.166v5.166H11.465v-5.166zM10.941 25.764h7.739v-5.562h-7.739v5.562zm.5-5.063h6.739v4.562h-6.739v-4.562zM19.647 25.764h7.738v-5.562h-7.738v5.562zm.5-5.063h6.738v4.562h-6.738v-4.562zM36.152 20.201h-7.738v5.562h7.738v-5.562zm-.5 5.063h-6.738v-4.562h6.738v4.562zM10.941 27.029h6.976v.484h-6.976zM10.941 27.92h7.739v.484h-7.739zM10.941 28.842h6.304v.484h-6.304zM10.941 29.842h7.054v.484h-7.054zM10.488 30.781h4.522v.484h-4.522zM19.647 27.029h6.976v.484h-6.976zM19.647 27.92h7.739v.484h-7.739zM19.647 28.842h6.304v.484h-6.304zM19.647 29.842h7.054v.484h-7.054zM19.193 30.781h4.522v.484h-4.522zM28.49 26.99h6.976v.484H28.49zM28.49 27.881h7.738v.484H28.49zM28.49 28.803h6.304v.484H28.49zM28.49 29.803h7.054v.484H28.49zM28.037 30.742h4.521v.484h-4.521zM22.501 11.029H10.938v1.406h11.563v-1.406zm-.5.908H11.438v-.407h10.563v.407z" data-original="#000000" class="active-path" data-old_color="#F3BA00" fill="#F3A530"/></svg></svg>
